# xmcd
#
# Track frame offsets:
#	150
#	13005
#	29647
#	42951
#	59823
#	74114
#	90651
#	102378
#	120792
#	133231
#	149042
#	170091
#
# Disc length: 2425 seconds
# Revision: 0
# Processed by: cddbd v1.5.2PL0 Copyright (c) Steve Scherf et al.
# Submitted via: dBpowerAMP V12.0
#
DISCID=bd09770c
DTITLE=John Lloyd - You Don't Know Me
DYEAR=2014
DGENRE=Country
TTITLE0=Country Roads
TTITLE1=Always On My Mind
TTITLE2=Save The Last Dance
TTITLE3=Don't Close Your Eyes
TTITLE4=Darlin
TTITLE5=You Don't Know Me
TTITLE6=You're Sixteen
TTITLE7=Make You Feel My Love
TTITLE8=When Will I Be Loved
TTITLE9=Words
TTITLE10=Back Home Again
TTITLE11=Hey Baby
EXTD=
EXTT0=
EXTT1=
EXTT2=
EXTT3=
EXTT4=
EXTT5=
EXTT6=
EXTT7=
EXTT8=
EXTT9=
EXTT10=
EXTT11=
PLAYORDER=
